<svg version="1.1" xmlns="http://www.w3.org/2000/svg" xmlns:xlink="http://www.w3.org/1999/xlink" width="112.19351" height="291.73735" viewBox="0,0,112.19351,291.73735"><g transform="translate(-284.58348,-29.69678)"><g data-paper-data="{&quot;isPaintingLayer&quot;:true}" fill-rule="nonzero" stroke="none" stroke-width="0.5" stroke-linecap="butt" stroke-linejoin="miter" stroke-miterlimit="10" stroke-dasharray="" stroke-dashoffset="0" style="mix-blend-mode: normal"><g><path d="M367.56789,210.86634c-2.13511,1.06751 -3.20262,-1.0676 -3.20262,-1.0676l-0.55869,-1.13587c-0.94145,-2.41731 -2.43461,-3.697 -3.68393,-5.92347c-4.38008,-7.80611 -9.80256,-15.0849 -15.38154,-22.14535c-0.12017,2.25739 -0.34329,4.48544 -1.20001,6.62717c0.39924,17.9434 0.12836,35.79029 0.03147,53.73939c0.14749,0.71805 0.29517,1.4362 0.44266,2.15425l0.03432,1.75676c0.00377,0.0725 0.00469,0.13995 0.00396,0.20077l0.00819,0.42021c0,0 0,0.36381 -0.14206,0.8074c2.11515,11.76175 5.88805,23.32466 8.21519,35.02522c0.68751,3.45657 0.77427,7.19341 1.46371,10.71945c0,7.29195 -0.07223,15.53115 1.39755,22.68334l0.74915,1.31023c0,0 1.0676,2.13511 -1.06751,3.20262c-2.13511,1.06751 -3.20262,-1.0676 -3.20262,-1.0676l-1.16053,-2.50904c-1.44144,-7.37412 -1.46702,-15.64157 -1.46702,-23.14919c-0.69376,-3.3802 -0.73599,-6.98574 -1.40077,-10.287c-1.76891,-8.7851 -4.25707,-17.50083 -6.32262,-26.27563c-1.34934,3.72764 -2.92364,7.38185 -4.38432,10.93006c-0.64858,1.57541 -0.43659,3.38986 -0.88248,5.0341c-1.81905,6.70713 -2.63629,13.61521 -3.81937,20.52909c-3.61713,9.08129 -6.84643,18.608 -12.80211,26.56979l-0.12247,0.75486c0,0 -0.75486,2.26466 -3.01952,1.50981c-2.26466,-0.75486 -1.50981,-3.01952 -1.50981,-3.01952l0.83233,-2.10962c5.60834,-7.4561 8.60467,-16.48117 12.02379,-24.99171c1.11747,-6.9194 1.97943,-13.82343 3.81937,-20.52909c0.50072,-1.82485 0.32857,-3.67905 1.02721,-5.46912c2.40719,-6.16831 5.40085,-12.48201 6.75939,-19.07109c-0.06956,-0.38635 -0.13737,-0.77289 -0.20362,-1.15961c0,0 -0.15715,-0.94274 0.32406,-1.73468c-0.11501,-0.58813 -0.22994,-1.17627 -0.34495,-1.76449c-0.04702,-10.61327 0.46585,-21.1186 0.46585,-31.74503c0,-7.82598 -0.55345,-15.51928 -0.43438,-23.36763c0.78964,-1.97418 1.01203,-4.00808 1.12722,-6.07235c-2.15011,2.23191 -4.46446,4.25164 -7.39252,5.37647c-2.87598,1.10477 -6.53314,0.66984 -9.53269,0.66984c-2.23862,0 -5.67541,0.54029 -7.79847,-0.08658c-5.14561,-1.51947 -10.63471,-6.84082 -13.75663,-10.99428c-2.44362,-4.07277 -6.43699,-6.73961 -7.52115,-11.36711l-0.27171,-0.35544c0,0 -1.0676,-2.13511 1.06751,-3.20262c2.13511,-1.06751 3.20262,1.06751 3.20262,1.06751l0.68309,1.55425c0.36832,2.63915 2.01623,3.10831 3.75938,5.11056c1.40703,1.61617 1.94042,2.69261 3.04206,4.52887c2.45549,3.28322 7.05576,7.82138 11.06918,9.05736c1.67036,0.51443 4.76083,-0.08658 6.52412,-0.08658c1.98357,0 5.6859,0.54967 7.65457,-0.28496c4.26783,-1.80939 7.00975,-5.68839 10.19627,-8.99618c0.31827,-1.27628 0.6507,-2.55054 0.78025,-3.8444c0.8522,-8.5134 0.01261,-17.55622 -0.01113,-26.13467c-1.96048,-0.11336 -3.91985,-0.23831 -5.87784,-0.37034c-5.44097,-0.36685 -11.84437,-0.07131 -17.02302,-2.09757c-0.81954,-0.32066 -1.37105,-1.11802 -2.14008,-1.54587c-1.82697,-1.01654 -3.97846,-1.37059 -5.78647,-2.42044c-3.31745,-1.92634 -6.5693,-4.65198 -9.55818,-7.07021c-1.56262,-2.06123 -3.9434,-3.50028 -5.43223,-5.46094c-0.58519,-0.77077 -0.66735,-1.82577 -1.14112,-2.6696c-1.27545,-2.27166 -3.18542,-4.41008 -4.33021,-6.7455c-1.44669,-2.95152 -1.51984,-6.31194 -2.53149,-9.40673c-0.51094,-1.56299 -1.8945,-2.74698 -2.39293,-4.31411c-0.31008,-0.97504 -0.01334,-4.14334 -0.11649,-5.35982c-0.38737,-4.56861 -1.20258,-9.75803 -0.46033,-14.34559c0.37559,-2.32199 1.13771,-4.57303 1.47309,-6.90118c0.64481,-1.92597 1.72373,-3.68053 2.48383,-5.56399c1.34207,-3.32582 1.53042,-7.36004 3.57554,-10.47911c7.7083,-11.75567 21.88211,-20.09544 34.74449,-25.1289c1.25291,-0.85533 2.33339,-2.04632 3.75864,-2.56581c0.38157,-0.13903 5.05544,-0.11391 5.98015,-0.11391c3.65044,0 7.13544,0.16093 10.7384,0.48904c7.84622,0.71465 16.48742,0.48085 23.62277,3.77162c-0.02613,-0.6852 0.21264,-1.53897 1.33259,-2.09895c2.13511,-1.06751 3.20262,1.06751 3.20262,1.06751l-0.22543,0.11271c2.49138,1.90297 3.61658,3.72552 5.32292,6.3067c1.97667,2.99026 4.33058,5.45873 6.20641,8.59363c2.53748,3.43136 5.01385,8.41329 6.4656,12.44272c0.21374,0.5931 0.7025,4.39885 1.00292,5.39625c0.38507,1.27821 1.72787,3.80787 1.96554,5.003c0.51848,2.6075 0.04306,5.91022 0.04306,8.56759c0,5.25456 0.44616,10.72276 -0.00819,15.95174c-0.2706,3.11484 -1.45874,5.4636 -1.43224,8.59354c-1.22098,7.44616 -2.73649,15.47383 -5.97003,22.3487c-0.94017,1.99894 -2.28951,2.7364 -3.67666,4.32175c-2.93837,3.35812 -6.23024,6.78819 -10.1499,9.09205c-4.48985,2.63896 -10.46421,3.18919 -15.52453,3.18919c-4.45682,0 -8.91355,-0.1301 -13.36642,-0.33832c0.03791,8.66402 0.84558,17.76076 -0.01297,26.35421c-0.14501,1.45156 -0.54921,2.87746 -0.89931,4.30804c0.02089,0.2442 -0.00543,0.47579 -0.0587,0.68815c6.73529,8.4408 13.60859,17.0797 18.80554,26.54117c1.29128,2.35079 2.90377,3.91543 3.95472,6.48943l0.3962,0.7739c0,0 1.06751,2.13511 -1.0676,3.20262zM376.79087,41.7989c-1.51809,1.00255 -2.90736,-0.38672 -2.90736,-0.38672c-4.60753,-4.81428 -10.93291,-4.94825 -17.12837,-5.51541c-4.88568,-0.44726 -9.69803,-1.43555 -14.60313,-1.42414c-2.5429,0.00589 -5.09676,0.06404 -7.63874,0c-0.71281,-0.01794 -1.47723,-0.38654 -2.13603,-0.11391c-1.12888,0.46714 -1.95008,1.47227 -2.92521,2.20835c-12.29384,5.00327 -25.44882,12.4084 -33.04928,23.56812c-1.86009,2.73116 -1.93131,6.60785 -3.10822,9.57253c-0.66965,1.68683 -1.71959,3.21661 -2.29043,4.93933c-0.30906,2.18305 -1.01672,4.29378 -1.39148,6.46652c-0.72965,4.23011 0.14851,9.12361 0.49456,13.34488c0.11409,1.39203 -0.58979,2.87442 -0.11658,4.18852c0.55308,1.53584 1.85788,2.73318 2.38124,4.27942c0.93032,2.74864 0.91459,6.14678 2.24276,8.73533c1.1701,2.2804 3.02568,4.36821 4.26332,6.6222c0.35939,0.65466 0.32544,1.50337 0.76857,2.10456c1.30701,1.77351 3.65228,3.12782 5.07099,5.04229c2.71395,2.14072 5.62002,4.55941 8.58378,6.29759c1.7656,1.03549 3.88175,1.36084 5.67164,2.35382c0.62236,0.34532 1.02132,1.04727 1.6792,1.31861c1.92137,0.7924 4.14049,0.4192 6.18313,0.80298c3.57527,0.67168 5.65793,0.68143 9.25841,0.91882c7.89481,0.5206 15.80562,0.9502 23.72279,0.9502c3.44498,0 5.60778,-0.35516 8.86819,-1.33324c1.7287,-0.51867 2.71165,-0.25579 4.25256,-1.20654c3.46715,-2.13934 6.31047,-5.08213 8.94695,-8.09521c0.4158,-0.47524 2.6213,-2.42577 3.00728,-3.31699c2.8125,-6.4933 4.30786,-13.66646 5.48808,-20.61917c0.02328,-3.13076 1.19053,-5.5316 1.43224,-8.59354c0.40365,-5.11083 -0.00819,-10.42547 -0.00819,-15.55793c0,-2.34011 0.5056,-5.37169 0.04306,-7.66478c-0.32351,-1.60403 -1.38504,-2.97765 -1.85374,-4.54543c-0.49529,-1.65647 -0.3098,-3.48436 -0.90677,-5.10706c-1.34943,-3.6681 -3.57609,-8.31842 -5.9473,-11.4283c-1.89496,-3.15045 -4.1864,-5.58635 -6.20641,-8.59363c-0.04803,-0.07158 -0.09523,-0.14234 -0.1416,-0.21218z" fill="#000000"/><path d="M350.34769,102.58476c0,2.38704 -2.38713,2.38704 -2.38713,2.38704h-0.63662c-6.46901,-0.05134 -12.64468,3.13518 -19.09676,3.18284c0,0 -2.38713,0 -2.38713,-2.38704c0,-2.38704 2.38713,-2.38713 2.38713,-2.38713c6.39926,0.06064 12.62232,-3.14199 19.09676,-3.18275h0.63662c0,0 2.38713,0 2.38713,2.38713z" fill="#000000"/><path d="M313.58614,81.10078c-2.38704,0 -2.38713,-2.38704 -2.38713,-2.38704c0,-4.24372 0,-8.80581 0,-13.04953c0,0 0.00009,-2.38704 2.38713,-2.38704c2.38704,0 2.38704,2.38704 2.38704,2.38704c0,4.24372 0,8.48754 0,12.73126v0.31827c0,0 0,2.38713 -2.38704,2.38713z" fill="#24ab00"/><path d="M326.3175,80.46424c-2.38704,0 -2.38713,-2.38713 -2.38713,-2.38713v-1.27315c0,-3.83915 0.09643,-7.33253 1.0261,-11.08225c0,0 0.57893,-2.31582 2.89475,-1.73689c2.31582,0.57902 1.73689,2.89485 1.73689,2.89485c-0.84917,3.3653 -0.88358,6.47351 -0.88358,9.92429v1.27315c0,0 0,2.38713 -2.38704,2.38713z" fill="#24ab00"/></g></g></g></svg>