<svg version="1.1" xmlns="http://www.w3.org/2000/svg" xmlns:xlink="http://www.w3.org/1999/xlink" width="196.31578" height="181.23311" viewBox="0,0,196.31578,181.23311"><g transform="translate(-142.16296,-89.43163)"><g data-paper-data="{&quot;isPaintingLayer&quot;:true}" fill="none" fill-rule="none" stroke="none" stroke-width="1" stroke-linecap="butt" stroke-linejoin="miter" stroke-miterlimit="10" stroke-dasharray="" stroke-dashoffset="0" font-family="none" font-weight="none" font-size="none" text-anchor="none" style="mix-blend-mode: normal"><path d="M298.222,244.415c-2.646,-2.47 -7.694,-8.8 -7.694,-8.8c0,0 4.722,-3.305 4.511,-8.83c-1.228,-6.155 -14.632,-3.69 -23.154,-2.335l-0.411,-13.955c8.547,-2.38 24.317,-1.01 29.33,1.21c3.694,1.645 6.291,5.92 7.088,9.585c1.684,7.79 -3.539,18.525 -9.67,23.125z" id="Shape" fill="#008264" fill-rule="evenodd"/><path d="M233.433,224.6c0,0 -3.695,40.495 -5.755,45.615c-1.524,0.135 -11.128,0.735 -12.632,0.285c0.867,-9.115 3.509,-44.5 3.509,-44.5z" id="Shape" fill="#008264" fill-rule="evenodd"/><path d="M175.716,156.335c2.802,-0.165 2.507,9.055 0.757,19.315c-0.927,5.395 -2.852,13.5 -3.654,15.425c-2.416,5.745 -5.078,11.28 -7.95,16.81c-1.113,2.115 -6.893,14.115 -8.442,23.195c-1.188,6.955 1.239,11.6 3.379,12.375c4.937,1.79 10.376,2.42 13.324,-0.81c1.027,-1.125 5.228,-8.61 7.153,-14.94c3.559,-11.705 5.228,-25.24 6.251,-27.705c1.574,-3.83 11.604,9.885 15.589,16.305c-4.651,9.275 -8.296,37.38 -27.66,46.81c-9.023,4.405 -23.84,-0.215 -28.928,-8.93c-5.193,-8.905 -3.81,-23.135 0.245,-32.63c4.848,-11.345 10.677,-22.11 16.582,-33c9.329,-17.17 9.078,-31.97 13.354,-32.22z" id="Shape" fill="#005a5a" fill-rule="evenodd"/><g id="Group-2" fill-rule="evenodd"><path d="M328.735,206.5c0.105,0.255 0.616,2.645 0.666,2.77c-1.178,7.375 -9.574,6.89 -15.464,5.815c-7.484,-1.36 -11.96,-6.555 -14.863,-13.26z" id="Shape" fill="#00a08c"/><path d="M328.033,205.57c-0.09,0.615 1.173,3.68 -1.835,5.245c-2.701,1.409 -5.87,1.63 -8.742,0.61c-2.922,-1.06 -5.283,-3.82 -6.441,-6.785z" id="Shape" fill="#000000"/><path d="M322.975,206.875c0,0 -0.501,2.075 -1.002,2.69c-0.735,0.824 -1.974,0.962 -2.873,0.32c-1.293,-0.905 -1.088,-2.925 -1.088,-2.925z" id="Shape" fill="#ffffff"/></g><path d="M196.494,179.525c8.156,-8.315 18.627,-13.705 30.492,-13.76c2.858,0 5.73,0.595 8.557,0.965c3.79,0.5 7.655,0.57 11.469,0.85c6.818,0.5 11.028,-1 12.562,-8.065c1.148,-5.22 0.456,-11.33 -0.035,-16.625c-0.541,-5.91 -1.694,-10.76 -1.815,-16.7c-0.12,-5.94 -0.165,-11.81 1.504,-17.64c1.775,-6.24 6.788,-12.355 12.332,-15.515c10.632,-6.065 23.635,-4.14 33.084,3.275c9.133,7.135 14.832,19.405 16.386,30.69c0.862,6.228 1.224,12.515 1.083,18.8c-0.14,5.5 -1.775,11.15 -3.008,16.47c-1.504,6.455 -2.436,13.055 0.346,19.315c1.253,2.835 3.669,6.08 6.406,7.665c2.547,1.475 5.75,1.285 7.62,3.87c3.343,4.62 1.098,12.5 -4.181,14.575c-2.371,0.925 -5.384,1.135 -7.89,0.945c-1.754,-0.14 -7.9,-0.64 -13.444,-3.14c-3.885,-1.755 -5.624,-1.805 -8.888,-3.7c-3.894,-9.215 -3.318,-21.5 -1.965,-31.215c1.529,-10.95 3.148,-22 2.958,-33.09c-0.095,-5.46 -0.842,-11.735 -3.068,-16.78c-1.91,-4.33 -7.058,-8.785 -11.78,-5.43c-3.9,2.77 -5.639,8.565 -6.486,13c-1.188,6.19 -1.143,12.43 -0.456,18.675c1.478,13.44 7.248,59.94 7.318,63.735c0.156,7.87 -1.203,19.395 -6.06,24.915c-4.857,5.52 -10.261,5.72 -13.229,6.73c-3.479,1.185 -37.385,1.875 -43.33,1.18c-0.14,-0.12 -21.579,1.245 -29.139,-8.72c-7.559,-9.965 -8.581,-21.605 -8.576,-25.695c0.015,-10.915 3.433,-21.605 11.233,-29.58z" id="Shape" fill="#00a08c" fill-rule="evenodd"/><path d="M210.685,224.605c0,0 -3.689,40.495 -5.75,45.61c-1.523,0.135 -11.128,0.735 -12.632,0.285c0.868,-9.115 3.509,-44.5 3.509,-44.5z" id="Shape" fill="#00a08c" fill-rule="evenodd"/><g id="Group" fill-rule="evenodd"><path d="M318.96,202.23c0.702,-2.715 2.727,-1.43 2.456,0.54c-0.261,1.97 -3.193,2.33 -2.456,-0.54z" id="Shape" fill="#005a5a"/><path d="M329.266,201.96c0.702,-2.715 2.727,-1.43 2.456,0.54c-0.27,2 -3.193,2.345 -2.456,-0.54z" id="Shape" fill="#005a5a"/><path d="M337.357,194.425l0.571,-0.12c0.664,1.075 0.732,2.414 0.18,3.55l-0.786,0.175c-0.893,-0.85 -0.868,-2.855 0.035,-3.605z" id="Shape" fill="#000000"/><path d="M303.175,194.245l0.576,-0.12c0.663,1.076 0.729,2.414 0.176,3.55l-0.787,0.175c-0.893,-0.85 -0.862,-2.85 0.035,-3.605z" id="Shape" fill="#000000"/></g><path d="M260.747,242.74v-12.92c6.848,-0.285 13.685,-0.08 16.728,0.785c3.889,1.105 8.797,6.235 10.1,9.745c2.777,7.5 -1.343,19.23 -6.762,24.65l-11.324,-7.93c0,0 5.409,-5.28 4.417,-10.725c-1.078,-3.06 -6.773,-3.74 -13.159,-3.605z" id="Shape" fill="#00a08c" fill-rule="evenodd"/><text transform="translate(207.73713,190.23001) scale(0.47868,0.47868)" font-size="40" xml:space="preserve" data-paper-data="{&quot;origPos&quot;:null}" fill="#ffffff" fill-rule="nonzero" stroke="none" stroke-width="1" stroke-linecap="butt" stroke-linejoin="miter" stroke-miterlimit="10" stroke-dasharray="" stroke-dashoffset="0" font-family="Sans Serif" font-weight="normal" text-anchor="start" style="mix-blend-mode: normal"><tspan x="0" dy="0">koala</tspan><tspan x="0" dy="48px">tree</tspan></text><text transform="translate(208.05781,224.0979) scale(0.2319,0.2319)" font-size="40" xml:space="preserve" data-paper-data="{&quot;origPos&quot;:null}" fill="#ffffff" fill-rule="nonzero" stroke="none" stroke-width="1" stroke-linecap="butt" stroke-linejoin="miter" stroke-miterlimit="10" stroke-dasharray="" stroke-dashoffset="0" font-family="Sans Serif" font-weight="normal" text-anchor="start" style="mix-blend-mode: normal"><tspan x="0" dy="0">PROPERTY OF</tspan><tspan x="0" dy="46.15px">WHALE EMPIRE</tspan></text></g></g></svg>