<svg version="1.1" xmlns="http://www.w3.org/2000/svg" xmlns:xlink="http://www.w3.org/1999/xlink" width="566.96702" height="409.60964" viewBox="0,0,566.96702,409.60964"><g transform="translate(43.48351,24.80482)"><g data-paper-data="{&quot;isPaintingLayer&quot;:true}" fill-rule="nonzero" stroke="none" stroke-linecap="butt" stroke-linejoin="miter" stroke-miterlimit="10" stroke-dasharray="" stroke-dashoffset="0" style="mix-blend-mode: normal"><path d="M-43.48351,384.80482v-409.60964h566.96702v409.60964z" fill="#000000" stroke-width="0"/><path d="" data-paper-data="{&quot;index&quot;:null}" fill="#000000" stroke-width="0.5"/><path d="M94.33868,84.33421c-4.37624,-1.53634 -8.90487,-2.56349 -13.77191,-2.4898c-9.96117,0.15082 -17.64083,10.60907 -21.39531,18.52187c-9.15521,19.29518 -5.4534,38.08889 -0.18221,57.93646c3.9798,10.29807 7.36416,21.97057 15.27172,30.14346c5.77724,5.9711 15.23682,7.36875 22.80188,4.43006c8.33263,-3.23685 16.4749,-11.4713 21.01364,-18.9012c6.87723,-11.258 9.28169,-22.65657 9.32354,-35.81284c0.01288,-4.04967 -0.59367,-13.51964 -2.32017,-17.79328c-1.73056,-4.2837 -5.87984,-9.20567 -8.70378,-12.86249c-4.01414,-3.52774 -8.12995,-6.94333 -12.34162,-10.23272l-3.3656,-1.99285c0,0 -6.66553,-3.99931 -6.33017,-10.94667zM134.33215,90.15677c0.09731,0.08701 0.19457,0.17408 0.29178,0.2612c5.32575,6.81596 10.40254,12.45461 13.69624,20.73749c3.02618,7.61011 4.06018,18.9655 4.07986,27.00676c0.04317,17.64067 -3.68629,33.95548 -13.07648,48.98715c-7.54098,12.07148 -19.87311,23.84075 -33.38639,29.09881c-13.17768,5.12747 -28.25442,3.88629 -40.36563,-3.30632c-3.17102,-1.88321 -6.20259,-4.078 -8.83249,-6.66364c-11.1135,-10.92645 -16.11496,-26.12366 -21.52827,-40.2565c-3.63395,-13.58069 -7.03082,-26.55147 -7.01042,-40.74922c0.04208,-29.275 18.01888,-66.31991 51.03289,-68.3925c10.41978,-0.65414 20.89619,2.63331 30.32723,6.56587c5.8546,2.44126 11.21121,5.87094 17.37122,7.38955c0,0 12.1268,3.03164 9.09515,15.15843c-0.41358,1.65436 -0.99643,3.02661 -1.69467,4.16293z" fill="#ffffff" stroke-width="0.5"/><path d="M224.51642,97.15036c-3.6697,3.11184 -8.6164,3.11184 -8.6164,3.11184c-6.57072,-0.20309 -11.261,3.91322 -15.48588,8.63653c-1.69786,1.89816 -3.596,3.6811 -4.87234,5.88488c-3.07054,5.30169 -3.64229,11.85597 -3.96591,17.75529c-0.6824,12.43932 0.82691,24.4626 4.28779,36.40101c0.86334,2.9781 1.60632,6.03428 2.99393,8.80719c2.18674,4.36986 8.37396,10.67543 13.80353,10.3433c2.4992,-0.15288 4.18585,-1.84369 6.18679,-3.16397c6.59659,-5.59775 10.131,-12.5788 13.59412,-20.56071c4.91803,-11.33523 7.76707,-22.61018 7.75796,-35.00351c-0.00186,-2.52444 -0.52303,-15.97873 -2.1139,-19.70362c-2.25786,-5.28659 -8.24889,-9.79472 -13.56968,-12.50822zM188.01957,85.82105c-0.287,-4.80226 2.68047,-8.75886 2.68047,-8.75886l5.48567,-6.11353c4.33898,-1.22764 8.51801,-3.37696 13.01692,-3.68292c3.88466,-0.26418 7.73281,1.05326 11.50573,2.01523c16.19145,4.12825 33.08918,14.24388 40.20554,30.18489c2.03807,4.56539 2.66299,9.66584 3.37252,14.6149c2.97315,20.73822 -0.66588,41.19148 -8.92841,60.27795c-2.62385,6.06112 -8.76238,17.9191 -13.17315,23.14525c-2.42543,2.8738 -5.62187,4.99603 -8.43281,7.49405c-7.43592,4.53666 -10.26799,7.50315 -19.41318,8.03605c-15.44586,0.90005 -30.31615,-9.99805 -37.39642,-23.25674c-2.27445,-4.25919 -3.58757,-8.9774 -5.00607,-13.59278c-5.72805,-18.63742 -8.20097,-41.09769 -3.36076,-60.26352c2.92829,-11.59516 9.98651,-22.50557 19.44395,-30.09995z" fill="#ffffff" stroke-width="0.5"/><path d="M301.6937,157.06564c0.10836,3.46943 0.21449,6.93995 0.30308,10.41269c0.18917,7.41501 -0.5001,14.84797 -0.05761,22.25218c0.16854,2.82015 0.82205,5.6068 0.86082,8.43171c0,0 0,12.5 -12.5,12.5c-12.5,0 -12.5,-12.5 -12.5,-12.5c0.06192,-2.00368 -0.62301,-3.96704 -0.73916,-5.96831c-0.2092,-3.60456 -0.05221,-7.22109 -0.06083,-10.83171c-0.06248,-26.19143 -1.77657,-52.30358 0.03145,-78.4861c0.57891,-8.38342 0.59972,-20.24637 8.96657,-25.72525c3.65746,-2.39502 8.65511,1.24565 12.99389,1.78243c0.37474,0.04636 -1.4627,-0.25132 -1.08964,-0.30967c3.467,-0.54235 5.9887,0.22713 9.50925,0.78561c10.07398,1.5981 17.93655,5.52733 26.36714,11.13703c6.06101,5.07792 7.86746,6.06213 12.95714,12.96392c2.03655,2.76163 4.03256,5.61949 5.38573,8.77276c1.35668,3.16145 2.48687,6.53651 2.65846,9.97248c0.93516,18.72568 -18.89494,29.14643 -34.36149,32.86132c-3.48879,0.83796 -7.02524,1.54269 -10.59591,1.89498c-2.69673,0.26607 -5.41673,0.08468 -8.12889,0.05393zM301.08609,132.06457c6.66109,0.03227 13.28861,-0.38364 19.55451,-3.01914c2.67899,-1.12681 6.24653,-4.55791 8.9627,-5.76527c-0.10868,-0.27786 -0.17175,-0.58385 -0.32479,-0.83868c-0.82398,-1.37204 -1.63514,-2.76124 -2.61428,-4.02723c-3.59551,-4.64886 -3.82574,-4.51916 -7.8429,-7.83607c-5.4008,-3.61204 -10.50498,-5.96145 -16.71542,-6.87788c-0.06777,0.325 -0.11628,0.64215 -0.13735,0.948c-0.30009,4.35766 -0.65706,8.71465 -0.77393,13.08107c-0.12803,4.78337 -0.15093,9.5608 -0.10853,14.33521z" fill="#ffffff" stroke-width="0.5"/><path d="M350.49128,180.40138c9.76085,-7.80871 17.56955,1.95213 17.56955,1.95213l2.27799,2.96986c1.71157,1.41951 3.1877,3.1845 5.13473,4.25855c6.02139,3.32161 15.19536,3.19375 21.74795,1.97062c2.2406,-0.41824 6.89915,-1.72008 7.86426,-4.45206c-1.93023,-7.15478 -6.91177,-12.52965 -12.18917,-17.47012c-10.38761,-9.72442 -22.81919,-18.47552 -29.10737,-31.74694c-1.56783,-3.30895 -4.53075,-13.85033 -4.38756,-18.32276c0.38879,-12.14352 9.61844,-22.32821 20.77129,-26.12988c2.41703,-0.82389 5.03477,-0.85869 7.55929,-1.24294c4.43559,-0.67512 8.85102,-1.4965 13.37009,-0.76424c2.32428,0.37662 4.50038,1.38671 6.75057,2.08006c0,0 11.85854,3.95287 7.90566,15.81141c-3.95287,11.85854 -15.8114,7.90566 -15.8114,7.90566c-2.69405,-1.05889 -5.80783,-0.64928 -8.67939,-0.28415c-1.46155,0.18584 -3.52956,-0.10804 -4.85886,0.96614c-0.8118,0.65601 -1.28108,1.66102 -2.04988,2.36694c-0.38106,0.3499 0.37874,0.96487 0.51663,1.46349c0.508,1.83699 0.71965,3.78523 1.53521,5.50786c1.39974,2.95654 6.81286,8.98593 8.72797,10.88237c7.20694,7.13666 15.84149,12.92641 22.33731,20.80464c2.55671,3.10082 4.92453,6.38656 6.90575,9.88322c5.46586,9.64666 4.39309,10.30896 5.53235,21.2127c-1.51184,4.01719 -2.08023,8.53091 -4.53553,12.05156c-10.37865,14.8819 -32.37977,17.3053 -48.71949,13.94607c-4.53044,-0.9314 -9.06741,-2.27335 -13.13277,-4.47908c-4.04927,-2.19699 -7.24352,-5.69429 -10.86527,-8.54143l-4.12204,-5.03014c0,0 -7.8087,-9.76084 1.95214,-17.56955z" fill="#ffffff" stroke-width="0.5"/><path d="M451.10004,191.46221c-12.5,0 -12.5,-12.5 -12.5,-12.5v-3.20001c0.01495,-9.25086 -1.27952,-18.31304 -1.59209,-27.55443c-0.14423,-4.26423 0.14027,-8.53564 0,-12.79999c-0.10447,-3.17584 -1.44311,-18.44178 -1.59872,-21.56587c-0.14672,-2.94563 -0.12199,-5.92114 -0.63912,-8.82473c0,0 -2.05496,-12.32993 10.27497,-14.38489c12.32993,-2.05496 14.38489,10.27497 14.38489,10.27497c2.42396,15.22104 2.05752,31.03612 2.56209,46.40938c0.31288,9.53291 1.59461,18.89468 1.60798,28.44557v3.20001c0,0 0,12.5 -12.5,12.5z" fill="#ffffff" stroke-width="0.5"/><path d="M439.40002,210.96221c0,-6.90356 5.59644,-12.5 12.5,-12.5c6.90356,0 12.5,5.59644 12.5,12.5c0,6.90356 -5.59644,12.5 -12.5,12.5c-6.90356,0 -12.5,-5.59644 -12.5,-12.5z" fill="#ffffff" stroke-width="0.5"/><text transform="translate(128.69998,272.56221) scale(0.5,0.5)" font-size="40" xml:space="preserve" fill="#ffffff" fill-rule="nonzero" stroke="none" stroke-width="1" stroke-linecap="butt" stroke-linejoin="miter" stroke-miterlimit="10" stroke-dasharray="" stroke-dashoffset="0" font-family="Sans Serif" font-weight="normal" text-anchor="start" style="mix-blend-mode: normal"><tspan x="0" dy="0">Can't show that on a kids'</tspan><tspan x="0" dy="46.15px">coding website!</tspan></text></g></g></svg>